<svg width="525" height="401" viewBox="0 0 525 401" fill="none" xmlns="http://www.w3.org/2000/svg">
<g clip-path="url(#clip0_2439_72)">
<path d="M252.766 148.861C255.636 145.7 260.375 146.624 263.529 148.855C267.587 151.726 268.748 156.97 269.346 161.619C270.36 169.488 270.66 180.612 279.583 183.901C283.706 185.421 288.426 184.166 291.908 181.698C295.711 179.002 298.084 174.856 299.673 170.558C301.597 165.354 302.711 159.788 303.655 154.335C304.62 148.759 305.253 143.122 305.537 137.47C305.815 131.94 305.634 126.446 305.414 120.92C305.243 116.605 305.177 112.075 306.635 107.949C308.107 103.782 311.529 100.612 316.029 100.194C320.398 99.7883 324.896 101.63 328.057 104.603C335.639 111.736 335.996 123.381 337.691 132.945C338.581 137.97 339.883 143.054 342.612 147.426C344.856 151.022 347.975 154.036 351.567 156.272C358.812 160.783 368.045 162.099 376.085 159C383.935 155.975 390.254 149.361 392.988 141.411C393.663 139.448 394.08 137.42 394.291 135.357C394.39 134.397 392.889 134.404 392.791 135.357C391.893 144.126 386.263 152.068 378.55 156.227C370.612 160.507 361 159.964 353.245 155.527C349.433 153.346 346.117 150.269 343.812 146.517C341.018 141.967 339.821 136.664 338.95 131.456C337.378 122.051 336.665 111.253 329.616 104.032C324.15 98.4315 314.09 96.184 308.215 102.422C302.166 108.845 303.979 119.192 304.172 127.166C304.455 138.844 303.251 150.549 300.582 161.921C299.421 166.871 298.084 171.976 295.169 176.221C292.504 180.1 288.149 183.107 283.3 183.059C278.463 183.011 275.065 179.457 273.349 175.219C271.537 170.748 271.419 165.92 270.792 161.201C270.216 156.869 269.168 152.075 265.919 148.904C263.393 146.439 259.645 144.852 256.089 145.419C254.381 145.692 252.866 146.522 251.705 147.8C251.058 148.514 252.115 149.578 252.766 148.861Z" fill="#1A8A98"/>
<path d="M469.54 309.225C468.695 307.802 465.043 309.326 464.371 308.034C463.702 306.747 467.096 304.785 469.035 300.304C469.384 299.496 471.588 294.404 469.957 292.833C466.865 289.854 452.717 302.145 447.766 298.123C446.679 297.24 445.92 295.478 442.632 292.617C441.323 291.479 440.532 290.965 439.767 291.156C438.68 291.428 438.594 292.881 437.429 295.74C435.682 300.028 434.649 299.769 433.631 303.189C432.875 305.728 433.048 307.205 432.159 307.492C430.901 307.899 429.742 305.206 428.148 305.447C426.521 305.693 425.537 308.829 425.226 311.177C424.643 315.583 426.261 318.491 427.158 321.548C428.133 324.87 428.711 329.923 426.46 337.075L404.183 399.842C409.101 386.962 423.342 351.656 429.325 338.536C431.053 334.749 432.96 330.907 436.876 329.391C440.647 327.931 445.825 328.803 452.427 327.212C453.198 327.027 455.337 326.482 455.606 325.224C455.829 324.183 454.571 323.603 454.764 322.628C455.023 321.321 457.498 321.305 460.539 319.797C462.684 318.734 464.02 317.47 465.169 316.382C465.515 316.054 470.664 311.12 469.54 309.225Z" fill="#F2F2F2"/>
<path d="M381.895 342.268C380.952 342.272 380.647 344.504 379.819 344.461C378.994 344.418 379.01 342.186 377.371 339.942C377.075 339.537 375.211 336.986 373.969 337.334C371.616 337.992 373.566 348.482 370.163 349.751C369.416 350.03 368.333 349.894 365.979 350.683C365.043 350.997 364.563 351.237 364.436 351.667C364.256 352.279 364.944 352.741 366.011 354.137C367.611 356.232 367.186 356.664 368.571 358.151C369.6 359.254 370.374 359.595 370.259 360.115C370.095 360.85 368.439 360.641 368.098 361.493C367.749 362.363 369.004 363.751 370.067 364.581C372.061 366.138 373.955 366.183 375.714 366.625C377.626 367.105 380.273 368.279 383.134 371.447L407.512 400.491C402.61 394.361 389.39 377.185 384.678 370.463C383.317 368.522 381.982 366.478 382.368 364.118C382.739 361.846 384.661 359.556 385.785 355.857C385.917 355.425 386.267 354.218 385.727 353.723C385.28 353.313 384.632 353.763 384.21 353.387C383.643 352.883 384.349 351.664 384.487 349.736C384.584 348.377 384.348 347.356 384.146 346.478C384.085 346.214 383.149 342.263 381.895 342.268Z" fill="#F2F2F2"/>
<path d="M400.694 346.488L400.126 341.42L400.386 341.036C401.586 339.259 402.198 337.524 402.205 335.877C402.207 335.615 402.194 335.353 402.182 335.087C402.133 334.029 402.072 332.715 402.757 331.183C403.141 330.329 404.221 328.352 405.843 328.597C406.28 328.658 406.61 328.859 406.861 329.093C406.898 329.035 406.936 328.976 406.976 328.912C407.482 328.141 407.882 327.811 408.267 327.493C408.563 327.248 408.869 326.996 409.349 326.399C409.559 326.137 409.723 325.907 409.861 325.714C410.281 325.129 410.829 324.432 411.796 324.444C412.829 324.493 413.37 325.347 413.728 325.912C414.368 326.92 414.658 327.647 414.85 328.129C414.92 328.305 414.999 328.504 415.04 328.565C415.373 329.054 418.078 328.597 419.097 328.43C421.387 328.048 423.368 327.718 424.184 329.162C424.769 330.195 424.334 331.56 422.854 333.33C422.392 333.88 421.902 334.299 421.466 334.627C421.827 334.842 422.15 335.172 422.281 335.691C422.589 336.92 421.533 338.151 419.144 339.355C418.55 339.656 417.751 340.057 416.632 340.25C416.104 340.341 415.63 340.363 415.223 340.375C415.215 340.61 415.16 340.865 415.017 341.126C414.597 341.897 413.723 342.264 412.407 342.176C410.958 342.1 409.765 341.824 408.712 341.582C407.794 341.371 407.002 341.192 406.38 341.234C405.228 341.327 404.339 342.25 403.297 343.446L400.694 346.488Z" fill="#F2F2F2"/>
<path d="M403.328 316.312L398.57 318.147L398.132 317.993C396.109 317.283 394.276 317.131 392.681 317.542C392.427 317.607 392.177 317.685 391.922 317.765C390.912 318.08 389.656 318.473 388.001 318.199C387.077 318.044 384.891 317.501 384.716 315.87C384.664 315.432 384.775 315.061 384.938 314.759C384.872 314.739 384.806 314.717 384.734 314.694C383.86 314.401 383.439 314.097 383.033 313.805C382.722 313.581 382.4 313.349 381.701 313.036C381.394 312.899 381.13 312.799 380.908 312.714C380.236 312.457 379.422 312.103 379.189 311.165C378.974 310.154 379.663 309.414 380.119 308.924C380.932 308.049 381.562 307.584 381.979 307.276C382.132 307.164 382.303 307.037 382.352 306.982C382.741 306.536 381.613 304.035 381.193 303.091C380.243 300.974 379.421 299.141 380.611 297.986C381.461 297.158 382.892 297.232 384.979 298.215C385.629 298.522 386.158 298.89 386.586 299.228C386.703 298.825 386.94 298.428 387.409 298.17C388.519 297.56 389.978 298.269 391.748 300.276C392.19 300.773 392.781 301.444 393.252 302.478C393.473 302.965 393.615 303.419 393.73 303.809C393.959 303.758 394.219 303.746 394.509 303.818C395.361 304.029 395.938 304.781 396.187 306.077C396.481 307.497 396.516 308.721 396.548 309.801C396.578 310.743 396.606 311.554 396.804 312.145C397.186 313.236 398.304 313.861 399.726 314.566L403.328 316.312Z" fill="#F2F2F2"/>
<path d="M400.694 301.381L400.126 296.313L400.386 295.929C401.586 294.152 402.198 292.417 402.205 290.77C402.207 290.508 402.194 290.246 402.182 289.98C402.133 288.923 402.072 287.608 402.757 286.076C403.141 285.222 404.221 283.245 405.843 283.49C406.28 283.551 406.61 283.752 406.861 283.987C406.898 283.928 406.936 283.869 406.976 283.805C407.482 283.035 407.882 282.704 408.267 282.386C408.563 282.141 408.869 281.889 409.349 281.292C409.559 281.03 409.723 280.8 409.861 280.607C410.281 280.022 410.829 279.325 411.796 279.337C412.829 279.386 413.37 280.24 413.728 280.805C414.368 281.813 414.658 282.54 414.85 283.022C414.92 283.199 414.999 283.397 415.04 283.458C415.373 283.947 418.078 283.49 419.097 283.323C421.387 282.942 423.368 282.611 424.184 284.055C424.769 285.088 424.334 286.453 422.854 288.223C422.392 288.773 421.902 289.192 421.466 289.52C421.827 289.735 422.15 290.065 422.281 290.584C422.589 291.813 421.533 293.044 419.144 294.248C418.55 294.549 417.751 294.95 416.632 295.143C416.104 295.234 415.63 295.256 415.223 295.268C415.215 295.503 415.16 295.758 415.017 296.019C414.597 296.79 413.723 297.157 412.407 297.069C410.958 296.993 409.765 296.717 408.712 296.475C407.794 296.264 407.002 296.086 406.38 296.127C405.228 296.22 404.339 297.143 403.297 298.339L400.694 301.381Z" fill="#F2F2F2"/>
<path d="M405.88 399.759L404.818 399.093L403.58 399.235C403.56 399.12 403.493 398.856 403.391 398.442C402.837 396.176 401.147 389.28 399.737 378.419C398.754 370.838 398.197 363.043 398.082 355.249C397.967 347.442 398.336 341.532 398.633 336.782C398.856 333.2 399.128 329.788 399.395 326.465C400.105 317.586 400.774 309.2 400.276 299.915C400.166 297.842 399.934 293.528 397.414 288.937C395.952 286.275 393.938 283.91 391.427 281.914L392.988 279.951C395.76 282.158 397.988 284.777 399.611 287.733C402.406 292.823 402.658 297.524 402.779 299.783C403.286 309.232 402.609 317.699 401.892 326.663C401.628 329.974 401.356 333.371 401.134 336.939C400.84 341.645 400.474 347.504 400.588 355.21C400.7 362.911 401.251 370.61 402.221 378.096C403.614 388.82 405.279 395.613 405.826 397.845C406.117 399.037 406.179 399.287 405.88 399.759Z" fill="#F2F2F2"/>
<path d="M386.831 285.895C386.728 285.895 386.624 285.893 386.519 285.885C384.385 285.77 382.409 284.493 380.644 282.09C379.817 280.959 379.394 279.67 378.55 277.098C378.419 276.701 377.782 274.69 377.396 271.922C377.142 270.113 377.174 269.357 377.533 268.689C377.93 267.945 378.574 267.426 379.298 267.076C379.267 266.836 379.292 266.589 379.396 266.337C379.823 265.292 380.959 265.429 381.573 265.495C381.884 265.535 382.272 265.586 382.69 265.564C383.349 265.532 383.702 265.336 384.238 265.043C384.751 264.761 385.388 264.411 386.334 264.218C388.199 263.829 389.762 264.357 390.277 264.531C392.987 265.434 394.323 267.541 395.87 269.981C396.178 270.47 397.236 272.252 397.935 274.694C398.439 276.456 398.368 277.239 398.217 277.822C397.908 279.019 397.18 279.704 395.331 281.216C393.4 282.8 392.431 283.592 391.599 284.075C389.662 285.193 388.446 285.895 386.831 285.895Z" fill="#F2F2F2"/>
<path d="M333.81 87.3354H299.59C298.727 87.3354 298.025 86.6334 298.025 85.7707C298.025 84.908 298.727 84.2063 299.59 84.2063H333.81C334.673 84.2063 335.375 84.908 335.375 85.7707C335.375 86.6334 334.673 87.3354 333.81 87.3354Z" fill="#E6E6E6"/>
<path d="M386.81 178.335H352.59C351.727 178.335 351.025 177.633 351.025 176.771C351.025 175.908 351.727 175.206 352.59 175.206H386.81C387.673 175.206 388.375 175.908 388.375 176.771C388.375 177.633 387.673 178.335 386.81 178.335Z" fill="#E6E6E6"/>
<path d="M414.81 240.335H380.59C379.727 240.335 379.025 239.633 379.025 238.771C379.025 237.908 379.727 237.206 380.59 237.206H414.81C415.673 237.206 416.375 237.908 416.375 238.771C416.375 239.633 415.673 240.335 414.81 240.335Z" fill="#E6E6E6"/>
<path d="M258.81 53.3354H224.59C223.727 53.3354 223.025 52.6334 223.025 51.7707C223.025 50.908 223.727 50.2063 224.59 50.2063H258.81C259.673 50.2063 260.375 50.908 260.375 51.7707C260.375 52.6334 259.673 53.3354 258.81 53.3354Z" fill="#E6E6E6"/>
<path d="M0 398.594C0 399.254 0.53003 399.784 1.19006 399.784H523.48C524.14 399.784 524.67 399.254 524.67 398.594C524.67 397.934 524.14 397.404 523.48 397.404H1.19006C0.53003 397.404 0 397.934 0 398.594Z" fill="#CCCCCC"/>
<path d="M397.248 222.18H242.148C241.596 222.18 241.148 221.732 241.148 221.18V73.1797C241.148 72.627 241.596 72.1797 242.148 72.1797C242.7 72.1797 243.148 72.627 243.148 73.1797V133.568C243.148 181.402 281.925 220.18 329.76 220.18H397.248C397.8 220.18 398.248 220.627 398.248 221.18C398.248 221.732 397.8 222.18 397.248 222.18Z" fill="#E6E6E6"/>
<path d="M274.81 162.699H240.59C239.727 162.699 239.025 161.997 239.025 161.134C239.025 160.272 239.727 159.57 240.59 159.57H274.81C275.673 159.57 276.375 160.272 276.375 161.134C276.375 161.997 275.673 162.699 274.81 162.699Z" fill="#E6E6E6"/>
<path d="M240.88 167.152C246.307 165.359 249.781 161.106 248.64 157.653C247.499 154.199 242.175 152.853 236.746 154.647C234.567 155.333 232.585 156.532 230.965 158.142L208.065 166.026L211.994 176.693L234.152 167.788C236.413 168.116 238.72 167.898 240.88 167.152Z" fill="#FFB6B6"/>
<path d="M123.167 228.289C123.352 234.001 126.45 238.536 130.086 238.418C133.721 238.299 136.517 233.573 136.331 227.858C136.288 225.574 135.698 223.334 134.612 221.325L133.521 197.131L122.179 197.885L124.458 221.656C123.504 223.732 123.062 226.006 123.167 228.289Z" fill="#FFB6B6"/>
<path d="M149.354 391.311L159.478 391.31L162.072 352L149.352 352.26L149.354 391.311Z" fill="#FFB6B6"/>
<path d="M184.041 391.082C184.356 391.612 184.523 393.326 184.523 393.943C184.523 395.841 182.984 397.38 181.086 397.38H149.732C148.437 397.38 147.388 396.33 147.388 395.036V393.73C147.388 393.73 145.837 389.807 149.03 384.971C149.03 384.971 152.999 388.758 158.93 382.827L160.679 379.659L173.338 388.917L180.355 389.781C181.89 389.97 183.251 389.752 184.041 391.082Z" fill="#111827"/>
<path d="M173.354 391.311L183.478 391.31L186.072 352L173.352 352.26L173.354 391.311Z" fill="#FFB6B6"/>
<path d="M208.041 391.082C208.356 391.612 208.523 393.326 208.523 393.943C208.523 395.841 206.984 397.38 205.086 397.38H173.732C172.437 397.38 171.388 396.33 171.388 395.036V393.73C171.388 393.73 169.837 389.807 173.03 384.971C173.03 384.971 176.999 388.758 182.93 382.827L184.679 379.659L197.338 388.917L204.355 389.781C205.89 389.97 207.251 389.752 208.041 391.082Z" fill="#111827"/>
<path d="M155.245 98.5147C163.47 98.5147 170.138 91.8468 170.138 83.6215C170.138 75.3962 163.47 68.7283 155.245 68.7283C147.019 68.7283 140.352 75.3962 140.352 83.6215C140.352 91.8468 147.019 98.5147 155.245 98.5147Z" fill="#FFB6B6"/>
<path d="M134.638 207.5L141.638 307.5L145.638 374.5L164.638 373.5L162.638 300.5L166.638 255.5L172.638 373.5H187.76L193.638 208.5L161.138 204L134.638 207.5Z" fill="#111827"/>
<path d="M160.638 95.5C156.402 99.5775 146.613 96.8739 141.638 95.5C138.9 94.7437 137.247 93.9643 136.638 92.5C136.215 91.482 136.455 90.5168 135.638 88.5C135.16 87.3186 134.907 87.2304 134.638 86.5C133.888 84.4637 134.93 82.6495 135.638 80.5C137.116 76.0147 135.351 75.5111 136.638 72.5C138.572 67.9731 143.834 66.1313 145.638 65.5C149.006 64.3211 151.815 64.4458 152.638 64.5C157.914 64.8472 161.441 67.5543 162.638 68.5C165.066 70.4169 166.257 72.4447 168.638 76.5C170.711 80.0289 170.862 81.3831 170.638 82.5C170.298 84.2017 169.316 84.2081 168.638 86.5C167.869 89.1015 168.744 90.409 167.638 91.5C166.891 92.2374 166.196 91.9306 164.638 92.5C162.494 93.2835 161.436 94.7323 160.638 95.5Z" fill="#111827"/>
<path d="M172.638 110.5C172.638 110.5 157.638 91.5001 138.638 98.5001L132.485 110.5L130.429 112.446C121.805 120.61 117.792 132.52 119.719 144.238L128.638 198.5C128.638 198.5 127.638 219.5 134.638 225.5C134.638 225.5 144.638 206.5 168.638 215.5C192.638 224.5 197.638 219.5 197.638 219.5L189.638 162.5L172.638 110.5Z" fill="#1A8A98"/>
<path d="M167.638 113.5L162.638 124.5L181.638 188.5L233.638 169.5L226.638 157.5L201.638 164.5C201.638 164.5 182.638 108.5 167.638 113.5Z" fill="#1A8A98"/>
<path d="M132.138 214H121.138L119.138 134L132.138 161V214Z" fill="#1A8A98"/>
<path d="M252.638 153C255.123 153 257.138 150.985 257.138 148.5C257.138 146.015 255.123 144 252.638 144C250.153 144 248.138 146.015 248.138 148.5C248.138 150.985 250.153 153 252.638 153Z" fill="#111827"/>
<path d="M282.638 188C285.123 188 287.138 185.985 287.138 183.5C287.138 181.015 285.123 179 282.638 179C280.153 179 278.138 181.015 278.138 183.5C278.138 185.985 280.153 188 282.638 188Z" fill="#111827"/>
<path d="M316.638 104C319.123 104 321.138 101.985 321.138 99.5C321.138 97.0147 319.123 95 316.638 95C314.153 95 312.138 97.0147 312.138 99.5C312.138 101.985 314.153 104 316.638 104Z" fill="#111827"/>
<path d="M366.638 164C369.123 164 371.138 161.985 371.138 159.5C371.138 157.015 369.123 155 366.638 155C364.153 155 362.138 157.015 362.138 159.5C362.138 161.985 364.153 164 366.638 164Z" fill="#111827"/>
<path d="M395.638 140C398.123 140 400.138 137.985 400.138 135.5C400.138 133.015 398.123 131 395.638 131C393.153 131 391.138 133.015 391.138 135.5C391.138 137.985 393.153 140 395.638 140Z" fill="#111827"/>
<path d="M387.065 40.0239L395.295 43.9225C391.92 39.2117 389.011 31.8544 387.454 26C384.817 31.4534 380.567 38.1261 376.36 42.1119L385.058 39.8743C379.698 66.1422 359.539 85 336.454 85L336.127 85.9488C360.24 85.9488 381.593 67.3524 387.065 40.0239Z" fill="#111827"/>
<path d="M362.186 0H414.186C416.392 0 418.186 1.79443 418.186 4C418.186 6.20557 416.392 8 414.186 8H362.186C359.98 8 358.186 6.20557 358.186 4C358.186 1.79443 359.98 0 362.186 0Z" fill="#1A8A98"/>
<path d="M397.316 230.364C396.768 230.364 396.215 230.242 395.688 229.995C394.389 229.385 393.573 228.164 393.506 226.73L392.967 215.104C392.898 213.611 393.677 212.254 395.001 211.56C396.325 210.867 397.886 211.002 399.073 211.908L406.991 217.964C407.943 218.691 408.487 219.797 408.483 220.994C408.479 222.193 407.929 223.294 406.972 224.017L399.593 229.588C398.912 230.101 398.119 230.364 397.316 230.364Z" fill="#E6E6E6"/>
<path d="M251.344 74.1492C251.344 74.6975 251.222 75.2508 250.975 75.7776C250.365 77.0769 249.144 77.8929 247.711 77.9593L236.085 78.4983C234.592 78.5677 233.234 77.7884 232.541 76.4641C231.847 75.1404 231.982 73.5799 232.888 72.3928L238.944 64.4749C239.672 63.5227 240.777 62.9788 241.974 62.9827C243.174 62.9861 244.274 63.5369 244.997 64.4934L250.568 71.8723C251.082 72.5535 251.344 73.346 251.344 74.1492Z" fill="#E6E6E6"/>
<path d="M316.269 63.8528C310.349 62.4347 304.023 63.7182 298.963 67.0612C293.656 70.5668 290.142 76.1803 288.953 82.3991C286.5 95.2293 293.996 108.046 305.843 113.153C318.297 118.521 333.113 114.919 342.158 104.956C346.64 100.018 349.442 93.7703 350.286 87.1638C351.117 80.6554 350.169 73.1462 346.228 67.7144C342.319 62.3263 335.809 60.5182 329.523 59.6353C323.423 58.7785 315.331 58.4061 312.033 64.8625C311.404 66.0935 311.108 67.42 311.178 68.8006C311.227 69.7612 312.727 69.767 312.678 68.8006C312.526 65.7819 314.538 63.2595 317.118 61.9028C320.108 60.3304 323.714 60.4636 326.974 60.8141C332.86 61.4468 339.543 62.5754 343.788 67.0962C348.016 71.5996 349.284 78.4623 349.021 84.4401C348.747 90.6796 346.598 96.8209 342.831 101.811C335.397 111.658 322.391 116.343 310.426 113.162C298.767 110.063 298.615 103.144 298.808 90.8914C298.91 84.3548 292.736 74.0662 297.777 69.8066C302.713 65.6361 309.553 63.7861 315.87 65.2993C316.808 65.524 317.209 64.078 316.269 63.8528Z" fill="#1A8A98"/>
</g>
<defs>
<clipPath id="clip0_2439_72">
<rect width="524.67" height="400.491" fill="white"/>
</clipPath>
</defs>
</svg>
