<svg width="1440" height="816" viewBox="0 0 1440 816" fill="none" xmlns="http://www.w3.org/2000/svg">
  <path
    d="M-1108.25 -352C-1108.25 -352 -938.25 660.5 221.75 978C1381.75 1295.5 1551.75 2308 1551.75 2308M-1090.75 -372C-1090.75 -372 -920.75 640.5 239.25 958C1399.25 1275.5 1569.25 2288 1569.25 2288M-1073.25 -392C-1073.25 -392 -903.25 620.5 256.75 938C1416.75 1255.5 1586.75 2268 1586.75 2268M-1055.75 -412C-1055.75 -412 -885.75 600.5 274.25 918C1434.25 1235.5 1604.25 2248 1604.25 2248M-1038.25 -432C-1038.25 -432 -868.25 580.5 291.75 898C1451.75 1215.5 1621.75 2228 1621.75 2228M-1020.75 -452C-1020.75 -452 -850.75 560.5 309.25 878C1469.25 1195.5 1639.25 2208 1639.25 2208M-1003.25 -472C-1003.25 -472 -833.25 540.5 326.75 858C1486.75 1175.5 1656.75 2188 1656.75 2188M-985.75 -492C-985.75 -492 -815.75 520.5 344.25 838C1504.25 1155.5 1674.25 2168 1674.25 2168M-968.25 -512C-968.25 -512 -798.25 500.5 361.75 818C1521.75 1135.5 1691.75 2148 1691.75 2148M-950.75 -532C-950.75 -532 -780.75 480.5 379.25 798C1539.25 1115.5 1709.25 2128 1709.25 2128M-933.25 -552C-933.25 -552 -763.25 460.5 396.75 778C1556.75 1095.5 1726.75 2108 1726.75 2108M-915.75 -572C-915.75 -572 -745.75 440.5 414.25 758C1574.25 1075.5 1744.25 2088 1744.25 2088M-898.25 -592C-898.25 -592 -728.25 420.5 431.75 738C1591.75 1055.5 1761.75 2068 1761.75 2068M-880.75 -612C-880.75 -612 -710.75 400.5 449.25 718C1609.25 1035.5 1779.25 2048 1779.25 2048M-863.25 -632C-863.25 -632 -693.25 380.5 466.75 698C1626.75 1015.5 1796.75 2028 1796.75 2028M-845.75 -652C-845.75 -652 -675.75 360.5 484.25 678C1644.25 995.5 1814.25 2008 1814.25 2008M-828.25 -672C-828.25 -672 -658.25 340.5 501.75 658C1661.75 975.5 1831.75 1988 1831.75 1988M-810.75 -692C-810.75 -692 -640.75 320.5 519.25 638C1679.25 955.5 1849.25 1968 1849.25 1968M-793.25 -712C-793.25 -712 -623.25 300.5 536.75 618C1696.75 935.5 1866.75 1948 1866.75 1948M-775.75 -732C-775.75 -732 -605.75 280.5 554.25 598C1714.25 915.5 1884.25 1928 1884.25 1928M-758.25 -752C-758.25 -752 -588.25 260.5 571.75 578C1731.75 895.5 1901.75 1908 1901.75 1908M-740.75 -772C-740.75 -772 -570.75 240.5 589.25 558C1749.25 875.5 1919.25 1888 1919.25 1888M-723.25 -792C-723.25 -792 -553.25 220.5 606.75 538C1766.75 855.5 1936.75 1868 1936.75 1868M-705.75 -812C-705.75 -812 -535.75 200.5 624.25 518C1784.25 835.5 1954.25 1848 1954.25 1848M-688.25 -832C-688.25 -832 -518.25 180.5 641.75 498C1801.75 815.5 1971.75 1828 1971.75 1828M-670.75 -852C-670.75 -852 -500.75 160.5 659.25 478C1819.25 795.5 1989.25 1808 1989.25 1808M-653.25 -872C-653.25 -872 -483.25 140.5 676.75 458C1836.75 775.5 2006.75 1788 2006.75 1788M-635.75 -892C-635.75 -892 -465.75 120.5 694.25 438C1854.25 755.5 2024.25 1768 2024.25 1768M-618.25 -912C-618.25 -912 -448.25 100.5 711.75 418C1871.75 735.5 2041.75 1748 2041.75 1748M-600.75 -932C-600.75 -932 -430.75 80.5 729.25 398C1889.25 715.5 2059.25 1728 2059.25 1728M-583.25 -952C-583.25 -952 -413.25 60.5 746.75 378C1906.75 695.5 2076.75 1708 2076.75 1708M-565.75 -972C-565.75 -972 -395.75 40.5 764.25 358C1924.25 675.5 2094.25 1688 2094.25 1688M-548.25 -992C-548.25 -992 -378.25 20.5 781.75 338C1941.75 655.5 2111.75 1668 2111.75 1668M-530.75 -1012C-530.75 -1012 -360.75 0.5 799.25 318C1959.25 635.5 2129.25 1648 2129.25 1648M-513.25 -1032C-513.25 -1032 -343.25 -19.5 816.75 298C1976.75 615.5 2146.75 1628 2146.75 1628M-495.75 -1052C-495.75 -1052 -325.75 -39.5 834.25 278C1994.25 595.5 2164.25 1608 2164.25 1608M-478.25 -1072C-478.25 -1072 -308.25 -59.5 851.75 258C2011.75 575.5 2181.75 1588 2181.75 1588M-460.75 -1092C-460.75 -1092 -290.75 -79.5 869.25 238C2029.25 555.5 2199.25 1568 2199.25 1568M-443.25 -1112C-443.25 -1112 -273.25 -99.5 886.75 218C2046.75 535.5 2216.75 1548 2216.75 1548M-425.75 -1132C-425.75 -1132 -255.75 -119.5 904.25 198C2064.25 515.5 2234.25 1528 2234.25 1528M-408.25 -1152C-408.25 -1152 -238.25 -139.5 921.75 178C2081.75 495.5 2251.75 1508 2251.75 1508M-390.75 -1172C-390.75 -1172 -220.75 -159.5 939.25 158C2099.25 475.5 2269.25 1488 2269.25 1488M-373.25 -1192C-373.25 -1192 -203.25 -179.5 956.75 138C2116.75 455.5 2286.75 1468 2286.75 1468M-355.75 -1212C-355.75 -1212 -185.75 -199.5 974.25 118C2134.25 435.5 2304.25 1448 2304.25 1448M-338.25 -1232C-338.25 -1232 -168.25 -219.5 991.75 98C2151.75 415.5 2321.75 1428 2321.75 1428M-320.75 -1252C-320.75 -1252 -150.75 -239.5 1009.25 78C2169.25 395.5 2339.25 1408 2339.25 1408M-303.25 -1272C-303.25 -1272 -133.25 -259.5 1026.75 58C2186.75 375.5 2356.75 1388 2356.75 1388M-285.75 -1292C-285.75 -1292 -115.75 -279.5 1044.25 38C2204.25 355.5 2374.25 1368 2374.25 1368M-268.25 -1312C-268.25 -1312 -98.25 -299.5 1061.75 18C2221.75 335.5 2391.75 1348 2391.75 1348M-250.75 -1332C-250.75 -1332 -80.75 -319.5 1079.25 -2C2239.25 315.5 2409.25 1328 2409.25 1328M-233.25 -1352C-233.25 -1352 -63.25 -339.5 1096.75 -22C2256.75 295.5 2426.75 1308 2426.75 1308M-215.75 -1372C-215.75 -1372 -45.75 -359.5 1114.25 -42C2274.25 275.5 2444.25 1288 2444.25 1288M-198.25 -1392C-198.25 -1392 -28.25 -379.5 1131.75 -62C2291.75 255.5 2461.75 1268 2461.75 1268M-180.75 -1412C-180.75 -1412 -10.75 -399.5 1149.25 -82C2309.25 235.5 2479.25 1248 2479.25 1248M-163.25 -1432C-163.25 -1432 6.75 -419.5 1166.75 -102C2326.75 215.5 2496.75 1228 2496.75 1228M-145.75 -1452C-145.75 -1452 24.25 -439.5 1184.25 -122C2344.25 195.5 2514.25 1208 2514.25 1208M-128.25 -1472C-128.25 -1472 41.75 -459.5 1201.75 -142C2361.75 175.5 2531.75 1188 2531.75 1188M-110.75 -1492C-110.75 -1492 59.25 -479.5 1219.25 -162C2379.25 155.5 2549.25 1168 2549.25 1168"
    stroke="white"
    stroke-opacity="0.05"
    stroke-width="0.5"
  />
</svg>
