<svg width="170" height="309" viewBox="0 0 170 309" fill="none" xmlns="http://www.w3.org/2000/svg">
<path d="M100 32.0001L100 30.0001L100 0.000115951L102 0.000116126L102 32.0001L100 32.0001Z" fill="black"/>
<path fill-rule="evenodd" clip-rule="evenodd" d="M82.0356 218.973C81.0376 219.707 80.3479 220.786 80.1001 222L52.0001 222L52 266.1C50.786 266.348 49.7072 267.038 48.9729 268.036C48.2385 269.034 47.9008 270.269 48.0254 271.501C48.1499 272.734 48.7278 273.877 49.6469 274.708C50.566 275.539 51.761 275.999 53 275.999C54.2391 275.999 55.4341 275.539 56.3532 274.708C57.2723 273.877 57.8502 272.734 57.9747 271.501C58.0993 270.269 57.7616 269.034 57.0272 268.036C56.2929 267.038 55.2141 266.348 54 266.1L54.0001 224L80.1001 224C80.3479 225.214 81.0376 226.293 82.0356 227.027C83.0336 227.762 84.2688 228.099 85.5016 227.975C86.7344 227.85 87.877 227.272 88.708 226.353C89.539 225.434 89.999 224.239 89.999 223C89.999 221.761 89.539 220.566 88.708 219.647C87.877 218.728 86.7344 218.15 85.5016 218.025C84.2688 217.901 83.0336 218.239 82.0356 218.973ZM53 268C52.2044 268 51.4413 268.316 50.8787 268.879C50.3161 269.441 50 270.204 50 271C50 271.796 50.3161 272.559 50.8787 273.121C51.4413 273.684 52.2044 274 53 274C53.7957 274 54.5588 273.684 55.1214 273.121C55.684 272.559 56 271.796 56 271C56 270.204 55.684 269.441 55.1214 268.879C54.5588 268.316 53.7957 268 53 268ZM82.8787 220.879C83.4413 220.316 84.2044 220 85.0001 220C85.7957 220 86.5588 220.316 87.1214 220.879C87.684 221.441 88.0001 222.204 88.0001 223C88.0001 223.796 87.684 224.559 87.1214 225.121C86.5588 225.684 85.7957 226 85.0001 226C84.2044 226 83.4413 225.684 82.8787 225.121C82.3161 224.559 82.0001 223.796 82.0001 223C82.0001 222.204 82.3161 221.441 82.8787 220.879Z" fill="black"/>
<path fill-rule="evenodd" clip-rule="evenodd" d="M84.0001 158L84.0001 202.1C82.786 202.348 81.7072 203.038 80.9729 204.036C80.2385 205.034 79.9008 206.269 80.0254 207.502C80.1499 208.734 80.7278 209.877 81.6469 210.708C82.566 211.539 83.761 211.999 85.0001 211.999C86.2391 211.999 87.4341 211.539 88.3532 210.708C89.2723 209.877 89.8502 208.734 89.9747 207.502C90.0993 206.269 89.7616 205.034 89.0273 204.036C88.2929 203.038 87.2141 202.348 86.0001 202.1L86.0001 160L128.1 160C128.348 161.214 129.038 162.293 130.036 163.027C131.034 163.762 132.269 164.099 133.502 163.975C134.734 163.85 135.877 163.272 136.708 162.353C137.539 161.434 137.999 160.239 137.999 159C137.999 157.761 137.539 156.566 136.708 155.647C135.877 154.728 134.734 154.15 133.502 154.025C132.269 153.901 131.034 154.239 130.036 154.973C129.038 155.707 128.348 156.786 128.1 158L84.0001 158ZM85.0001 204C84.6061 204 84.216 204.078 83.852 204.229C83.488 204.379 83.1573 204.6 82.8787 204.879C82.6002 205.157 82.3792 205.488 82.2284 205.852C82.0777 206.216 82.0001 206.606 82.0001 207C82.0001 207.394 82.0777 207.784 82.2284 208.148C82.3792 208.512 82.6002 208.843 82.8787 209.121C83.1573 209.4 83.488 209.621 83.852 209.772C84.216 209.923 84.6061 210 85.0001 210C85.7957 210 86.5588 209.684 87.1214 209.121C87.684 208.559 88.0001 207.796 88.0001 207C88.0001 206.204 87.684 205.441 87.1214 204.879C86.5588 204.316 85.7957 204 85.0001 204ZM130.879 156.879C131.441 156.316 132.204 156 133 156C133.796 156 134.559 156.316 135.121 156.879C135.684 157.441 136 158.204 136 159C136 159.796 135.684 160.559 135.121 161.121C134.559 161.684 133.796 162 133 162C132.204 162 131.441 161.684 130.879 161.121C130.316 160.559 130 159.796 130 159C130 158.204 130.316 157.441 130.879 156.879Z" fill="black"/>
<path fill-rule="evenodd" clip-rule="evenodd" d="M82.0357 122.973C81.0377 123.707 80.3479 124.786 80.1001 126L70.0001 126L70.0001 78.0001L57.9001 78.0001C57.6522 76.7861 56.9625 75.7073 55.9645 74.9729C54.9665 74.2385 53.7313 73.9009 52.4985 74.0255C51.2657 74.15 50.1231 74.7278 49.2921 75.647C48.4612 76.5661 48.0011 77.7611 48.0011 79.0001C48.0011 80.2392 48.4612 81.4341 49.2921 82.3533C50.1231 83.2724 51.2657 83.8503 52.4985 83.9748C53.7313 84.0994 54.9665 83.7617 55.9645 83.0274C56.9625 82.293 57.6522 81.2142 57.9001 80.0001L68.0001 80.0001L68.0001 128L80.1001 128C80.3479 129.214 81.0377 130.293 82.0357 131.027C83.0337 131.762 84.2688 132.099 85.5016 131.975C86.7344 131.85 87.877 131.272 88.708 130.353C89.539 129.434 89.999 128.239 89.999 127C89.999 125.761 89.539 124.566 88.708 123.647C87.877 122.728 86.7344 122.15 85.5016 122.025C84.2688 121.901 83.0337 122.239 82.0357 122.973ZM85.0001 124C84.2044 124 83.4413 124.316 82.8787 124.879C82.3161 125.441 82.0001 126.204 82.0001 127C82.0001 127.796 82.3161 128.559 82.8787 129.121C83.4413 129.684 84.2044 130 85.0001 130C85.7957 130 86.5588 129.684 87.1214 129.121C87.684 128.559 88.0001 127.796 88.0001 127C88.0001 126.204 87.684 125.441 87.1214 124.879C86.5588 124.316 85.7957 124 85.0001 124ZM50.8787 76.8788C51.4414 76.3162 52.2044 76.0001 53.0001 76.0001C53.7957 76.0001 54.5588 76.3162 55.1214 76.8788C55.684 77.4414 56.0001 78.2045 56.0001 79.0001C56.0001 79.7958 55.684 80.5589 55.1214 81.1215C54.5588 81.6841 53.7957 82.0001 53.0001 82.0001C52.2044 82.0001 51.4413 81.6841 50.8787 81.1215C50.3161 80.5589 50.0001 79.7958 50.0001 79.0001C50.0001 78.2045 50.3161 77.4414 50.8787 76.8788Z" fill="black"/>
<path fill-rule="evenodd" clip-rule="evenodd" d="M16.1001 254C16.3479 252.786 17.0376 251.707 18.0356 250.973C19.0336 250.238 20.2688 249.901 21.5016 250.025C22.7344 250.15 23.877 250.728 24.708 251.647C25.5389 252.566 25.999 253.761 25.999 255C25.999 256.239 25.5389 257.434 24.708 258.353C23.877 259.272 22.7344 259.85 21.5016 259.975C20.2688 260.099 19.0336 259.762 18.0356 259.027C17.0376 258.293 16.3479 257.214 16.1001 256C16.0095 255.149 15.9956 254.73 16.1001 254ZM18.8787 252.879C19.4413 252.316 20.2044 252 21.0001 252C21.7957 252 22.5588 252.316 23.1214 252.879C23.684 253.441 24.0001 254.204 24.0001 255C24.0001 255.796 23.684 256.559 23.1214 257.121C22.5588 257.684 21.7957 258 21.0001 258C20.2044 258 19.4413 257.684 18.8787 257.121C18.3161 256.559 18.0001 255.796 18.0001 255C18.0001 254.204 18.3161 253.441 18.8787 252.879Z" fill="black"/>
<path fill-rule="evenodd" clip-rule="evenodd" d="M64.1001 206C64.3479 204.786 65.0376 203.707 66.0356 202.973C67.0336 202.239 68.2688 201.901 69.5016 202.025C70.7344 202.15 71.877 202.728 72.708 203.647C73.539 204.566 73.999 205.761 73.999 207C73.999 208.239 73.539 209.434 72.708 210.353C71.877 211.272 70.7344 211.85 69.5016 211.975C68.2688 212.099 67.0336 211.762 66.0356 211.027C65.0376 210.293 64.3479 209.214 64.1001 208L45.0001 208L4.00005 249L4.00005 246.17L44.1701 206L64.1001 206ZM67.852 204.229C68.216 204.078 68.6061 204 69.0001 204C69.7957 204 70.5588 204.316 71.1214 204.879C71.684 205.441 72.0001 206.204 72.0001 207C72.0001 207.796 71.684 208.559 71.1214 209.121C70.5588 209.684 69.7957 210 69.0001 210C68.6061 210 68.216 209.923 67.852 209.772C67.488 209.621 67.1573 209.4 66.8787 209.121C66.6002 208.843 66.3792 208.512 66.2284 208.148C66.0777 207.784 66.0001 207.394 66.0001 207C66.0001 206.606 66.0777 206.216 66.2284 205.852C66.3792 205.488 66.6002 205.157 66.8787 204.879C67.1573 204.6 67.488 204.379 67.852 204.229Z" fill="black"/>
<path fill-rule="evenodd" clip-rule="evenodd" d="M36.0001 115.9C34.786 115.652 33.7072 114.963 32.9729 113.965C32.2385 112.967 31.9008 111.731 32.0254 110.499C32.1499 109.266 32.7278 108.123 33.6469 107.292C34.5661 106.461 35.761 106.001 37.0001 106.001C38.2391 106.001 39.4341 106.461 40.3532 107.292C41.2724 108.123 41.8502 109.266 41.9747 110.499C42.0993 111.731 41.7616 112.967 41.0273 113.965C40.2929 114.963 39.2141 115.652 38.0001 115.9L38.0001 192.41L4.00005 226.41L4.00005 223.59L36.0001 191.59L36.0001 115.9ZM34.8787 108.879C35.4413 108.316 36.2044 108 37.0001 108C37.7957 108 38.5588 108.316 39.1214 108.879C39.684 109.441 40.0001 110.204 40.0001 111C40.0001 111.796 39.684 112.559 39.1214 113.121C38.5588 113.684 37.7957 114 37.0001 114C36.2044 114 35.4413 113.684 34.8787 113.121C34.3161 112.559 34.0001 111.796 34.0001 111C34.0001 110.204 34.3161 109.441 34.8787 108.879Z" fill="black"/>
<path fill-rule="evenodd" clip-rule="evenodd" d="M20.0001 83.9002C18.786 83.6523 17.7072 82.9626 16.9729 81.9646C16.2385 80.9666 15.9008 79.7314 16.0254 78.4986C16.1499 77.2658 16.7278 76.1232 17.6469 75.2922C18.5661 74.4612 19.761 74.0012 21.0001 74.0012C22.2391 74.0012 23.4341 74.4612 24.3532 75.2922C25.2724 76.1232 25.8502 77.2658 25.9748 78.4986C26.0993 79.7314 25.7616 80.9666 25.0273 81.9646C24.2929 82.9626 23.2141 83.6523 22.0001 83.9002L22.0001 183.41L4.00006 201.41L4.00006 198.59L20.0001 182.59L20.0001 83.9002ZM18.8787 76.8788C19.4414 76.3162 20.2044 76.0001 21.0001 76.0001C21.7957 76.0001 22.5588 76.3162 23.1214 76.8788C23.684 77.4414 24.0001 78.2045 24.0001 79.0001C24.0001 79.7958 23.684 80.5589 23.1214 81.1215C22.5588 81.6841 21.7957 82.0001 21.0001 82.0001C20.2044 82.0001 19.4413 81.6841 18.8787 81.1215C18.3161 80.5589 18.0001 79.7958 18.0001 79.0001C18.0001 78.2045 18.3161 77.4414 18.8787 76.8788Z" fill="black"/>
<path fill-rule="evenodd" clip-rule="evenodd" d="M0.100065 158C0.347883 156.786 1.03764 155.707 2.03564 154.973C3.03364 154.239 4.26878 153.901 5.50159 154.025C6.73439 154.15 7.87703 154.728 8.70799 155.647C9.53895 156.566 9.99904 157.761 9.99904 159C9.99904 160.239 9.53895 161.434 8.70799 162.353C7.87703 163.272 6.73439 163.85 5.50158 163.975C4.26878 164.099 3.03364 163.762 2.03564 163.027C1.03764 162.293 0.347883 161.214 0.100065 160C0.034511 159.169 0.00814381 158.708 0.100065 158ZM2.87874 156.879C3.44134 156.316 4.2044 156 5.00006 156C5.79571 156 6.55877 156.316 7.12138 156.879C7.68399 157.441 8.00006 158.204 8.00006 159C8.00006 159.796 7.68399 160.559 7.12138 161.121C6.55877 161.684 5.79571 162 5.00006 162C4.2044 162 3.44134 161.684 2.87874 161.121C2.31613 160.559 2.00006 159.796 2.00006 159C2.00006 158.204 2.31613 157.441 2.87874 156.879Z" fill="black"/>
<path fill-rule="evenodd" clip-rule="evenodd" d="M0.100064 174C0.347882 172.786 1.03764 171.707 2.03564 170.973C3.03364 170.239 4.26878 169.901 5.50158 170.025C6.73439 170.15 7.87703 170.728 8.70799 171.647C9.53895 172.566 9.99904 173.761 9.99904 175C9.99903 176.239 9.53895 177.434 8.70799 178.353C7.87703 179.272 6.73439 179.85 5.50158 179.975C4.26878 180.099 3.03364 179.762 2.03564 179.027C1.03764 178.293 0.347881 177.214 0.100063 176C-0.0294812 175.165 -0.0353401 174.719 0.100064 174ZM2.87873 172.879C3.44134 172.316 4.2044 172 5.00006 172C5.79571 172 6.55877 172.316 7.12138 172.879C7.68399 173.441 8.00006 174.204 8.00006 175C8.00006 175.796 7.68399 176.559 7.12138 177.121C6.55877 177.684 5.79571 178 5.00006 178C4.2044 178 3.44134 177.684 2.87873 177.121C2.31613 176.559 2.00006 175.796 2.00006 175C2.00006 174.204 2.31613 173.441 2.87873 172.879Z" fill="black"/>
<path fill-rule="evenodd" clip-rule="evenodd" d="M66.0356 282.973C65.0376 283.707 64.3479 284.786 64.1 286L38 286L38.0001 243.9C39.2141 243.652 40.2929 242.963 41.0272 241.965C41.7616 240.967 42.0993 239.731 41.9747 238.499C41.8502 237.266 41.2723 236.123 40.3532 235.292C39.4341 234.461 38.2391 234.001 37.0001 234.001C35.761 234.001 34.566 234.461 33.6469 235.292C32.7278 236.123 32.1499 237.266 32.0254 238.499C31.9008 239.731 32.2385 240.967 32.9729 241.965C33.7072 242.963 34.786 243.652 36.0001 243.9L36 288L64.1 288C64.3479 289.214 65.0376 290.293 66.0356 291.027C67.0336 291.762 68.2688 292.099 69.5016 291.975C70.7344 291.85 71.877 291.272 72.708 290.353C73.5389 289.434 73.999 288.239 73.999 287C73.999 285.761 73.539 284.566 72.708 283.647C71.877 282.728 70.7344 282.15 69.5016 282.025C68.2688 281.901 67.0336 282.238 66.0356 282.973ZM37.0001 236C36.2044 236 35.4413 236.316 34.8787 236.879C34.3161 237.441 34.0001 238.204 34.0001 239C34.0001 239.796 34.3161 240.559 34.8787 241.121C35.4413 241.684 36.2044 242 37.0001 242C37.7957 242 38.5588 241.684 39.1214 241.121C39.684 240.559 40.0001 239.796 40.0001 239C40.0001 238.204 39.684 237.441 39.1214 236.879C38.5588 236.316 37.7957 236 37.0001 236ZM66.8787 284.879C67.4413 284.316 68.2044 284 69 284C69.7957 284 70.5588 284.316 71.1214 284.879C71.684 285.441 72 286.204 72 287C72 287.796 71.684 288.559 71.1214 289.121C70.5588 289.684 69.7957 290 69 290C68.2044 290 67.4413 289.684 66.8787 289.121C66.3161 288.559 66 287.796 66 287C66 286.204 66.3161 285.441 66.8787 284.879Z" fill="black"/>
<path fill-rule="evenodd" clip-rule="evenodd" d="M68.0001 238L68 266.1C66.786 266.348 65.7072 267.038 64.9729 268.036C64.2385 269.034 63.9008 270.269 64.0254 271.501C64.1499 272.734 64.7278 273.877 65.6469 274.708C66.566 275.539 67.761 275.999 69 275.999C70.2391 275.999 71.4341 275.539 72.3532 274.708C73.2723 273.877 73.8502 272.734 73.9747 271.501C74.0993 270.269 73.7616 269.034 73.0272 268.036C72.2929 267.038 71.2141 266.348 70 266.1L70.0001 240L102 240L102 176L112.1 176C112.348 177.214 113.038 178.293 114.036 179.027C115.034 179.762 116.269 180.099 117.502 179.975C118.734 179.85 119.877 179.272 120.708 178.353C121.539 177.434 121.999 176.239 121.999 175C121.999 173.761 121.539 172.566 120.708 171.647C119.877 170.728 118.734 170.15 117.502 170.025C116.269 169.901 115.034 170.239 114.036 170.973C113.038 171.707 112.348 172.786 112.1 174L100 174L100 238L68.0001 238ZM117 172C116.204 172 115.441 172.316 114.879 172.879C114.316 173.441 114 174.204 114 175C114 175.796 114.316 176.559 114.879 177.121C115.441 177.684 116.204 178 117 178C117.796 178 118.559 177.684 119.121 177.121C119.684 176.559 120 175.796 120 175C120 174.204 119.684 173.441 119.121 172.879C118.559 172.316 117.796 172 117 172ZM66.8787 268.879C67.4413 268.316 68.2044 268 69 268C69.7957 268 70.5588 268.316 71.1214 268.879C71.684 269.441 72 270.204 72 271C72 271.796 71.684 272.559 71.1214 273.121C70.5588 273.684 69.7957 274 69 274C68.2044 274 67.4413 273.684 66.8787 273.121C66.3161 272.559 66 271.796 66 271C66 270.204 66.3161 269.441 66.8787 268.879Z" fill="black"/>
<path fill-rule="evenodd" clip-rule="evenodd" d="M55.9645 195.027C56.9625 194.293 57.6522 193.214 57.9001 192L70.0001 192L70.0001 144L96.1001 144C96.3479 145.214 97.0376 146.293 98.0357 147.027C99.0337 147.762 100.269 148.099 101.502 147.975C102.734 147.85 103.877 147.272 104.708 146.353C105.539 145.434 105.999 144.239 105.999 143C105.999 141.761 105.539 140.566 104.708 139.647C103.877 138.728 102.734 138.15 101.502 138.025C100.269 137.901 99.0337 138.239 98.0357 138.973C97.0377 139.707 96.3479 140.786 96.1001 142L68.0001 142L68.0001 190L57.9001 190C57.6522 188.786 56.9625 187.707 55.9645 186.973C54.9665 186.239 53.7313 185.901 52.4985 186.025C51.2657 186.15 50.1231 186.728 49.2921 187.647C48.4612 188.566 48.0011 189.761 48.0011 191C48.0011 192.239 48.4612 193.434 49.2921 194.353C50.1231 195.272 51.2657 195.85 52.4985 195.975C53.7313 196.099 54.9665 195.762 55.9645 195.027ZM101 140C100.204 140 99.4413 140.316 98.8787 140.879C98.3161 141.441 98.0001 142.204 98.0001 143C98.0001 143.796 98.3161 144.559 98.8787 145.121C99.4413 145.684 100.204 146 101 146C101.796 146 102.559 145.684 103.121 145.121C103.684 144.559 104 143.796 104 143C104 142.204 103.684 141.441 103.121 140.879C102.559 140.316 101.796 140 101 140ZM50.8787 188.879C51.4413 188.316 52.2044 188 53.0001 188C53.7957 188 54.5588 188.316 55.1214 188.879C55.684 189.441 56.0001 190.204 56.0001 191C56.0001 191.796 55.684 192.559 55.1214 193.121C54.5588 193.684 53.7957 194 53.0001 194C52.2044 194 51.4413 193.684 50.8787 193.121C50.3161 192.559 50.0001 191.796 50.0001 191C50.0001 190.204 50.3161 189.441 50.8787 188.879Z" fill="black"/>
<path fill-rule="evenodd" clip-rule="evenodd" d="M52.0001 96.0001L52.0001 170.1C50.786 170.348 49.7072 171.038 48.9729 172.036C48.2385 173.034 47.9008 174.269 48.0254 175.502C48.1499 176.734 48.7278 177.877 49.6469 178.708C50.566 179.539 51.761 179.999 53.0001 179.999C54.2391 179.999 55.4341 179.539 56.3532 178.708C57.2724 177.877 57.8502 176.734 57.9747 175.502C58.0993 174.269 57.7616 173.034 57.0273 172.036C56.2929 171.038 55.2141 170.348 54.0001 170.1L54.0001 94.0001L38.0001 94.0001L38.0001 83.9002C39.2141 83.6523 40.2929 82.9626 41.0273 81.9646C41.7616 80.9666 42.0993 79.7314 41.9748 78.4986C41.8502 77.2658 41.2724 76.1232 40.3532 75.2922C39.4341 74.4612 38.2391 74.0012 37.0001 74.0012C35.761 74.0012 34.5661 74.4612 33.6469 75.2922C32.7278 76.1232 32.1499 77.2658 32.0254 78.4986C31.9008 79.7314 32.2385 80.9666 32.9729 81.9646C33.7072 82.9626 34.786 83.6523 36.0001 83.9002L36.0001 96.0001L52.0001 96.0001ZM37.0001 76.0001C36.2044 76.0001 35.4414 76.3162 34.8787 76.8788C34.3161 77.4414 34.0001 78.2045 34.0001 79.0001C34.0001 79.7958 34.3161 80.5589 34.8787 81.1215C35.4413 81.6841 36.2044 82.0001 37.0001 82.0001C37.7957 82.0001 38.5588 81.6841 39.1214 81.1215C39.684 80.5589 40.0001 79.7958 40.0001 79.0001C40.0001 78.2045 39.684 77.4414 39.1214 76.8788C38.5588 76.3162 37.7957 76.0001 37.0001 76.0001ZM50.8787 172.879C51.4413 172.316 52.2044 172 53.0001 172C53.7957 172 54.5588 172.316 55.1214 172.879C55.684 173.441 56.0001 174.204 56.0001 175C56.0001 175.796 55.684 176.559 55.1214 177.121C54.5588 177.684 53.7957 178 53.0001 178C52.2044 178 51.4413 177.684 50.8787 177.121C50.3161 176.559 50.0001 175.796 50.0001 175C50.0001 174.204 50.3161 173.441 50.8787 172.879Z" fill="black"/>
<path d="M4.00007 14.0001L84.0001 14.0001L84.0001 0.000114552L86.0001 0.000114727L86.0001 16.0001L4.00007 16.0001L4.00007 14.0001Z" fill="black"/>
<path d="M100 30.0001L4.00007 30.0001L4.00007 32.0001L100 32.0001L100 30.0001Z" fill="black"/>
<path fill-rule="evenodd" clip-rule="evenodd" d="M4.00007 46.0001L86.0001 46.0001L86.0001 102.6L125.4 142L144.1 142C144.348 140.786 145.038 139.707 146.036 138.973C147.034 138.239 148.269 137.901 149.502 138.025C150.734 138.15 151.877 138.728 152.708 139.647C153.539 140.566 153.999 141.761 153.999 143C153.999 144.239 153.539 145.434 152.708 146.353C151.877 147.272 150.734 147.85 149.502 147.975C148.269 148.099 147.034 147.762 146.036 147.027C145.038 146.293 144.348 145.214 144.1 144L124.6 144L84.0001 103.4L84.0001 48.0001L4.00007 48.0001L4.00007 46.0001ZM146.879 140.879C147.441 140.316 148.204 140 149 140C149.796 140 150.559 140.316 151.121 140.879C151.684 141.441 152 142.204 152 143C152 143.796 151.684 144.559 151.121 145.121C150.559 145.684 149.796 146 149 146C148.204 146 147.441 145.684 146.879 145.121C146.316 144.559 146 143.796 146 143C146 142.204 146.316 141.441 146.879 140.879Z" fill="black"/>
<path fill-rule="evenodd" clip-rule="evenodd" d="M66.0357 58.9729C65.0377 59.7073 64.3479 60.7861 64.1001 62.0001L4.00007 62.0001L4.00006 138.1C2.78603 138.348 1.70724 139.038 0.972869 140.036C0.238494 141.034 -0.0991676 142.269 0.0253745 143.502C0.149917 144.734 0.727767 145.877 1.64691 146.708C2.56605 147.539 3.76099 147.999 5.00006 147.999C6.23913 147.999 7.43407 147.539 8.35321 146.708C9.27235 145.877 9.8502 144.734 9.97475 143.502C10.0993 142.269 9.76163 141.034 9.02725 140.036C8.29288 139.038 7.2141 138.348 6.00006 138.1L6.00007 64.0001L64.1001 64.0001C64.3479 65.2142 65.0377 66.293 66.0357 67.0274C67.0337 67.7617 68.2688 68.0994 69.5016 67.9748C70.7344 67.8503 71.877 67.2724 72.708 66.3533C73.539 65.4341 73.999 64.2392 73.999 63.0001C73.999 61.7611 73.539 60.5661 72.708 59.647C71.877 58.7279 70.7344 58.15 69.5016 58.0255C68.2688 57.9009 67.0337 58.2385 66.0357 58.9729ZM5.00006 140C4.20441 140 3.44134 140.316 2.87874 140.879C2.31613 141.441 2.00006 142.204 2.00006 143C2.00006 143.796 2.31613 144.559 2.87874 145.121C3.44134 145.684 4.20441 146 5.00006 146C5.79571 146 6.55878 145.684 7.12138 145.121C7.68399 144.559 8.00006 143.796 8.00006 143C8.00006 142.204 7.68399 141.441 7.12138 140.879C6.55878 140.316 5.79571 140 5.00006 140ZM66.8787 60.8788C67.4414 60.3162 68.2044 60.0001 69.0001 60.0001C69.7957 60.0001 70.5588 60.3162 71.1214 60.8788C71.684 61.4414 72.0001 62.2045 72.0001 63.0001C72.0001 63.7958 71.684 64.5589 71.1214 65.1215C70.5588 65.6841 69.7957 66.0001 69.0001 66.0001C68.2044 66.0001 67.4414 65.6841 66.8787 65.1215C66.3161 64.5589 66.0001 63.7958 66.0001 63.0001C66.0001 62.2045 66.3161 61.4414 66.8787 60.8788Z" fill="black"/>
<path fill-rule="evenodd" clip-rule="evenodd" d="M130.036 58.9729C129.038 59.7073 128.348 60.7861 128.1 62.0001L116 62.0001L116 87.4102L140.59 112L160.1 112C160.348 113.214 161.038 114.293 162.036 115.027C163.034 115.762 164.269 116.099 165.502 115.975C166.734 115.85 167.877 115.272 168.708 114.353C169.539 113.434 169.999 112.239 169.999 111C169.999 109.761 169.539 108.566 168.708 107.647C167.877 106.728 166.734 106.15 165.502 106.025C164.269 105.901 163.034 106.239 162.036 106.973C161.038 107.707 160.348 108.786 160.1 110L141.41 110L118 86.5901L118 64.0001L128.1 64.0001C128.348 65.2142 129.038 66.293 130.036 67.0274C131.034 67.7617 132.269 68.0994 133.502 67.9748C134.734 67.8503 135.877 67.2724 136.708 66.3533C137.539 65.4342 137.999 64.2392 137.999 63.0001C137.999 61.7611 137.539 60.5661 136.708 59.647C135.877 58.7279 134.734 58.15 133.502 58.0255C132.269 57.9009 131.034 58.2386 130.036 58.9729ZM165 108C164.204 108 163.441 108.316 162.879 108.879C162.316 109.441 162 110.204 162 111C162 111.796 162.316 112.559 162.879 113.121C163.441 113.684 164.204 114 165 114C165.796 114 166.559 113.684 167.121 113.121C167.684 112.559 168 111.796 168 111C168 110.204 167.684 109.441 167.121 108.879C166.559 108.316 165.796 108 165 108ZM130.879 60.8788C131.441 60.3162 132.204 60.0001 133 60.0001C133.796 60.0001 134.559 60.3162 135.121 60.8788C135.684 61.4414 136 62.2045 136 63.0001C136 63.7958 135.684 64.5589 135.121 65.1215C134.559 65.6841 133.796 66.0001 133 66.0001C132.204 66.0001 131.441 65.6841 130.879 65.1215C130.316 64.5589 130 63.7958 130 63.0001C130 62.2045 130.316 61.4414 130.879 60.8788Z" fill="black"/>
<path fill-rule="evenodd" clip-rule="evenodd" d="M130.036 42.9729C129.038 43.7073 128.348 44.7861 128.1 46.0001L100 46.0001L100 95.4102L132.59 128L160.1 128C160.348 129.214 161.038 130.293 162.036 131.027C163.034 131.762 164.269 132.099 165.502 131.975C166.734 131.85 167.877 131.272 168.708 130.353C169.539 129.434 169.999 128.239 169.999 127C169.999 125.761 169.539 124.566 168.708 123.647C167.877 122.728 166.734 122.15 165.502 122.025C164.269 121.901 163.034 122.239 162.036 122.973C161.038 123.707 160.348 124.786 160.1 126L133.41 126L102 94.5901L102 48.0001L128.1 48.0001C128.348 49.2142 129.038 50.293 130.036 51.0273C131.034 51.7617 132.269 52.0993 133.502 51.9748C134.734 51.8502 135.877 51.2724 136.708 50.3533C137.539 49.4341 137.999 48.2392 137.999 47.0001C137.999 45.761 137.539 44.5661 136.708 43.647C135.877 42.7278 134.734 42.15 133.502 42.0254C132.269 41.9009 131.034 42.2385 130.036 42.9729ZM165 124C164.204 124 163.441 124.316 162.879 124.879C162.316 125.441 162 126.204 162 127C162 127.796 162.316 128.559 162.879 129.121C163.441 129.684 164.204 130 165 130C165.796 130 166.559 129.684 167.121 129.121C167.684 128.559 168 127.796 168 127C168 126.204 167.684 125.441 167.121 124.879C166.559 124.316 165.796 124 165 124ZM130.879 44.8788C131.441 44.3162 132.204 44.0001 133 44.0001C133.796 44.0001 134.559 44.3162 135.121 44.8788C135.684 45.4414 136 46.2045 136 47.0001C136 47.7958 135.684 48.5589 135.121 49.1215C134.559 49.6841 133.796 50.0001 133 50.0001C132.204 50.0001 131.441 49.6841 130.879 49.1215C130.316 48.5588 130 47.7958 130 47.0001C130 46.2045 130.316 45.4414 130.879 44.8788Z" fill="black"/>
<path fill-rule="evenodd" clip-rule="evenodd" d="M4.00005 304L4.00005 270L22 270L22 282.1C23.2141 282.348 24.2929 283.038 25.0272 284.036C25.7616 285.034 26.0993 286.269 25.9747 287.502C25.8502 288.734 25.2723 289.877 24.3532 290.708C23.4341 291.539 22.2391 291.999 21 291.999C19.761 291.999 18.566 291.539 17.6469 290.708C16.7278 289.877 16.1499 288.734 16.0254 287.502C15.9008 286.269 16.2385 285.034 16.9729 284.036C17.7072 283.038 18.786 282.348 20 282.1L20 272L6.00005 272L6.00005 302L38 302.025L64.1 302.025C64.3479 300.811 65.0376 299.732 66.0356 298.998C67.0336 298.264 68.2688 297.926 69.5016 298.05C70.7344 298.175 71.877 298.753 72.708 299.672C73.5389 300.591 73.999 301.786 73.999 303.025C73.999 304.264 73.5389 305.459 72.708 306.378C71.877 307.297 70.7344 307.875 69.5016 308C68.2688 308.124 67.0336 307.787 66.0356 307.052C65.0376 306.318 64.3479 305.239 64.1 304.025L36 304.025L16.9729 304L4.00005 304ZM18.8787 284.879C19.4413 284.316 20.2044 284 21 284C21.7957 284 22.5588 284.316 23.1214 284.879C23.684 285.441 24 286.204 24 287C24 287.796 23.684 288.559 23.1214 289.121C22.5588 289.684 21.7957 290 21 290C20.2044 290 19.4413 289.684 18.8787 289.121C18.3161 288.559 18 287.796 18 287C18 286.204 18.3161 285.441 18.8787 284.879ZM66.8787 300.904C67.4413 300.341 68.2044 300.025 69 300.025C69.7957 300.025 70.5588 300.341 71.1214 300.904C71.684 301.466 72 302.229 72 303.025C72 303.821 71.684 304.584 71.1214 305.146C70.5588 305.709 69.7957 306.025 69 306.025C68.2044 306.025 67.4413 305.709 66.8787 305.146C66.3161 304.584 66 303.821 66 303.025C66 302.229 66.3161 301.466 66.8787 300.904Z" fill="black"/>
</svg>
