<svg width="170" height="309" viewBox="0 0 170 309" fill="none" xmlns="http://www.w3.org/2000/svg">
<path d="M69.999 276.025V278.025V308.025H67.999V276.025H69.999Z" fill="black"/>
<path fill-rule="evenodd" clip-rule="evenodd" d="M87.9634 89.0522C88.9614 88.3178 89.6512 87.239 89.899 86.025H117.999V41.9252C119.213 41.6774 120.292 40.9876 121.026 39.9896C121.761 38.9916 122.098 37.7565 121.974 36.5237C121.849 35.2909 121.271 34.1482 120.352 33.3172C119.433 32.4863 118.238 32.0262 116.999 32.0262C115.76 32.0262 114.565 32.4863 113.646 33.3172C112.727 34.1482 112.149 35.2909 112.024 36.5237C111.9 37.7565 112.237 38.9916 112.972 39.9896C113.706 40.9876 114.785 41.6774 115.999 41.9252V84.025H89.899C89.6512 82.811 88.9614 81.7321 87.9634 80.9978C86.9654 80.2634 85.7303 79.9258 84.4975 80.0503C83.2646 80.1749 82.122 80.7527 81.291 81.6718C80.4601 82.591 80 83.7859 80 85.025C80 86.2641 80.4601 87.459 81.291 88.3781C82.122 89.2973 83.2646 89.8751 84.4975 89.9997C85.7303 90.1242 86.9654 89.7866 87.9634 89.0522ZM116.999 40.0252C117.795 40.0252 118.558 39.7091 119.12 39.1465C119.683 38.5839 119.999 37.8208 119.999 37.0252C119.999 36.2295 119.683 35.4665 119.12 34.9039C118.558 34.3412 117.795 34.0252 116.999 34.0252C116.203 34.0252 115.44 34.3412 114.878 34.9039C114.315 35.4665 113.999 36.2295 113.999 37.0252C113.999 37.8208 114.315 38.5839 114.878 39.1465C115.44 39.7091 116.203 40.0252 116.999 40.0252ZM87.1203 87.1463C86.5577 87.7089 85.7946 88.025 84.999 88.025C84.2033 88.025 83.4403 87.7089 82.8777 87.1463C82.315 86.5837 81.999 85.8206 81.999 85.025C81.999 84.2293 82.315 83.4663 82.8777 82.9037C83.4403 82.341 84.2033 82.025 84.999 82.025C85.7946 82.025 86.5577 82.341 87.1203 82.9037C87.6829 83.4663 87.999 84.2293 87.999 85.025C87.999 85.8206 87.6829 86.5837 87.1203 87.1463Z" fill="black"/>
<path fill-rule="evenodd" clip-rule="evenodd" d="M85.999 150.025V105.925C87.213 105.677 88.2918 104.987 89.0262 103.989C89.7606 102.991 90.0982 101.756 89.9737 100.523C89.8491 99.2907 89.2713 98.148 88.3521 97.317C87.433 96.4861 86.2381 96.026 84.999 96.026C83.7599 96.026 82.565 96.4861 81.6458 97.317C80.7267 98.148 80.1488 99.2907 80.0243 100.523C79.8998 101.756 80.2374 102.991 80.9718 103.989C81.7062 104.987 82.7849 105.677 83.999 105.925V148.025H41.899C41.6512 146.811 40.9614 145.732 39.9634 144.998C38.9654 144.263 37.7303 143.926 36.4975 144.05C35.2646 144.175 34.122 144.753 33.291 145.672C32.4601 146.591 32 147.786 32 149.025C32 150.264 32.4601 151.459 33.291 152.378C34.122 153.297 35.2646 153.875 36.4975 154C37.7303 154.124 38.9654 153.787 39.9634 153.052C40.9614 152.318 41.6512 151.239 41.899 150.025H85.999ZM84.999 104.025C85.3929 104.025 85.7831 103.947 86.147 103.797C86.511 103.646 86.8417 103.425 87.1203 103.146C87.3989 102.868 87.6199 102.537 87.7706 102.173C87.9214 101.809 87.999 101.419 87.999 101.025C87.999 100.631 87.9214 100.241 87.7706 99.8769C87.6199 99.5129 87.3989 99.1822 87.1203 98.9037C86.8417 98.6251 86.511 98.4042 86.147 98.2534C85.7831 98.1026 85.3929 98.025 84.999 98.025C84.2033 98.025 83.4403 98.341 82.8777 98.9037C82.315 99.4663 81.999 100.229 81.999 101.025C81.999 101.821 82.315 102.584 82.8777 103.146C83.4403 103.709 84.2033 104.025 84.999 104.025ZM39.1203 151.146C38.5577 151.709 37.7946 152.025 36.999 152.025C36.2033 152.025 35.4403 151.709 34.8777 151.146C34.3151 150.584 33.999 149.821 33.999 149.025C33.999 148.229 34.3151 147.466 34.8777 146.904C35.4403 146.341 36.2033 146.025 36.999 146.025C37.7946 146.025 38.5577 146.341 39.1203 146.904C39.6829 147.466 39.999 148.229 39.999 149.025C39.999 149.821 39.6829 150.584 39.1203 151.146Z" fill="black"/>
<path fill-rule="evenodd" clip-rule="evenodd" d="M87.9634 185.052C88.9614 184.318 89.6512 183.239 89.899 182.025H99.999V230.025H112.099C112.347 231.239 113.037 232.318 114.035 233.052C115.033 233.787 116.268 234.124 117.501 234C118.733 233.875 119.876 233.297 120.707 232.378C121.538 231.459 121.998 230.264 121.998 229.025C121.998 227.786 121.538 226.591 120.707 225.672C119.876 224.753 118.733 224.175 117.501 224.05C116.268 223.926 115.033 224.263 114.035 224.998C113.037 225.732 112.347 226.811 112.099 228.025H101.999V180.025H89.899C89.6512 178.811 88.9614 177.732 87.9634 176.998C86.9654 176.263 85.7303 175.926 84.4975 176.05C83.2646 176.175 82.122 176.753 81.291 177.672C80.4601 178.591 80 179.786 80 181.025C80 182.264 80.4601 183.459 81.291 184.378C82.122 185.297 83.2646 185.875 84.4975 186C85.7303 186.124 86.9654 185.787 87.9634 185.052ZM84.999 184.025C85.7946 184.025 86.5577 183.709 87.1203 183.146C87.6829 182.584 87.999 181.821 87.999 181.025C87.999 180.229 87.6829 179.466 87.1203 178.904C86.5577 178.341 85.7946 178.025 84.999 178.025C84.2033 178.025 83.4403 178.341 82.8777 178.904C82.315 179.466 81.999 180.229 81.999 181.025C81.999 181.821 82.315 182.584 82.8777 183.146C83.4403 183.709 84.2033 184.025 84.999 184.025ZM119.12 231.146C118.558 231.709 117.795 232.025 116.999 232.025C116.203 232.025 115.44 231.709 114.878 231.146C114.315 230.584 113.999 229.821 113.999 229.025C113.999 228.229 114.315 227.466 114.878 226.904C115.44 226.341 116.203 226.025 116.999 226.025C117.795 226.025 118.558 226.341 119.12 226.904C119.683 227.466 119.999 228.229 119.999 229.025C119.999 229.821 119.683 230.584 119.12 231.146Z" fill="black"/>
<path fill-rule="evenodd" clip-rule="evenodd" d="M153.899 54.0252C153.651 55.2392 152.961 56.318 151.963 57.0524C150.965 57.7868 149.73 58.1244 148.497 57.9999C147.265 57.8753 146.122 57.2975 145.291 56.3783C144.46 55.4592 144 54.2643 144 53.0252C144 51.7861 144.46 50.5912 145.291 49.672C146.122 48.7529 147.265 48.1751 148.497 48.0505C149.73 47.926 150.965 48.2636 151.963 48.998C152.961 49.7323 153.651 50.8111 153.899 52.0252C153.99 52.876 154.003 53.295 153.899 54.0252ZM151.12 55.1465C150.558 55.7091 149.795 56.0252 148.999 56.0252C148.203 56.0252 147.44 55.7091 146.878 55.1465C146.315 54.5839 145.999 53.8208 145.999 53.0252C145.999 52.2295 146.315 51.4665 146.878 50.9039C147.44 50.3412 148.203 50.0252 148.999 50.0252C149.795 50.0252 150.558 50.3412 151.12 50.9039C151.683 51.4665 151.999 52.2295 151.999 53.0252C151.999 53.8208 151.683 54.5839 151.12 55.1465Z" fill="black"/>
<path fill-rule="evenodd" clip-rule="evenodd" d="M105.899 102.025C105.651 103.239 104.961 104.318 103.963 105.052C102.965 105.787 101.73 106.124 100.497 106C99.2646 105.875 98.122 105.297 97.291 104.378C96.4601 103.459 96 102.264 96 101.025C96 99.7859 96.4601 98.591 97.291 97.6718C98.122 96.7527 99.2646 96.1749 100.497 96.0503C101.73 95.9258 102.965 96.2634 103.963 96.9978C104.961 97.7321 105.651 98.811 105.899 100.025H124.999L165.999 59.0252V61.8552L125.829 102.025H105.899ZM102.147 103.797C101.783 103.947 101.393 104.025 100.999 104.025C100.203 104.025 99.4403 103.709 98.8777 103.146C98.315 102.584 97.999 101.821 97.999 101.025C97.999 100.229 98.315 99.4663 98.8777 98.9037C99.4403 98.341 100.203 98.025 100.999 98.025C101.393 98.025 101.783 98.1026 102.147 98.2534C102.511 98.4042 102.842 98.6251 103.12 98.9037C103.399 99.1822 103.62 99.5129 103.771 99.8769C103.921 100.241 103.999 100.631 103.999 101.025C103.999 101.419 103.921 101.809 103.771 102.173C103.62 102.537 103.399 102.868 103.12 103.146C102.842 103.425 102.511 103.646 102.147 103.797Z" fill="black"/>
<path fill-rule="evenodd" clip-rule="evenodd" d="M133.999 192.125C135.213 192.373 136.292 193.063 137.026 194.061C137.761 195.059 138.098 196.294 137.974 197.527C137.849 198.759 137.271 199.902 136.352 200.733C135.433 201.564 134.238 202.024 132.999 202.024C131.76 202.024 130.565 201.564 129.646 200.733C128.727 199.902 128.149 198.759 128.024 197.527C127.9 196.294 128.237 195.059 128.972 194.061C129.706 193.063 130.785 192.373 131.999 192.125V115.615L165.999 81.615V84.435L133.999 116.435V192.125ZM135.12 199.146C134.558 199.709 133.795 200.025 132.999 200.025C132.203 200.025 131.44 199.709 130.878 199.146C130.315 198.584 129.999 197.821 129.999 197.025C129.999 196.229 130.315 195.466 130.878 194.904C131.44 194.341 132.203 194.025 132.999 194.025C133.795 194.025 134.558 194.341 135.12 194.904C135.683 195.466 135.999 196.229 135.999 197.025C135.999 197.821 135.683 198.584 135.12 199.146Z" fill="black"/>
<path fill-rule="evenodd" clip-rule="evenodd" d="M149.999 224.125C151.213 224.373 152.292 225.063 153.026 226.061C153.761 227.059 154.098 228.294 153.974 229.527C153.849 230.759 153.271 231.902 152.352 232.733C151.433 233.564 150.238 234.024 148.999 234.024C147.76 234.024 146.565 233.564 145.646 232.733C144.727 231.902 144.149 230.759 144.024 229.527C143.9 228.294 144.237 227.059 144.972 226.061C145.706 225.063 146.785 224.373 147.999 224.125V124.615L165.999 106.615V109.435L149.999 125.435V224.125ZM151.12 231.146C150.558 231.709 149.795 232.025 148.999 232.025C148.203 232.025 147.44 231.709 146.878 231.146C146.315 230.584 145.999 229.821 145.999 229.025C145.999 228.229 146.315 227.466 146.878 226.904C147.44 226.341 148.203 226.025 148.999 226.025C149.795 226.025 150.558 226.341 151.12 226.904C151.683 227.466 151.999 228.229 151.999 229.025C151.999 229.821 151.683 230.584 151.12 231.146Z" fill="black"/>
<path fill-rule="evenodd" clip-rule="evenodd" d="M169.899 150.025C169.651 151.239 168.961 152.318 167.963 153.052C166.965 153.787 165.73 154.124 164.497 154C163.265 153.875 162.122 153.297 161.291 152.378C160.46 151.459 160 150.264 160 149.025C160 147.786 160.46 146.591 161.291 145.672C162.122 144.753 163.265 144.175 164.497 144.05C165.73 143.926 166.965 144.263 167.963 144.998C168.961 145.732 169.651 146.811 169.899 148.025C169.965 148.857 169.991 149.317 169.899 150.025ZM167.12 151.146C166.558 151.709 165.795 152.025 164.999 152.025C164.203 152.025 163.44 151.709 162.878 151.146C162.315 150.584 161.999 149.821 161.999 149.025C161.999 148.229 162.315 147.466 162.878 146.904C163.44 146.341 164.203 146.025 164.999 146.025C165.795 146.025 166.558 146.341 167.12 146.904C167.683 147.466 167.999 148.229 167.999 149.025C167.999 149.821 167.683 150.584 167.12 151.146Z" fill="black"/>
<path fill-rule="evenodd" clip-rule="evenodd" d="M169.899 134.025C169.651 135.239 168.961 136.318 167.963 137.052C166.965 137.787 165.73 138.124 164.497 138C163.265 137.875 162.122 137.297 161.291 136.378C160.46 135.459 160 134.264 160 133.025C160 131.786 160.46 130.591 161.291 129.672C162.122 128.753 163.265 128.175 164.497 128.05C165.73 127.926 166.965 128.263 167.963 128.998C168.961 129.732 169.651 130.811 169.899 132.025C170.029 132.86 170.034 133.306 169.899 134.025ZM167.12 135.146C166.558 135.709 165.795 136.025 164.999 136.025C164.203 136.025 163.44 135.709 162.878 135.146C162.315 134.584 161.999 133.821 161.999 133.025C161.999 132.229 162.315 131.466 162.878 130.904C163.44 130.341 164.203 130.025 164.999 130.025C165.795 130.025 166.558 130.341 167.12 130.904C167.683 131.466 167.999 132.229 167.999 133.025C167.999 133.821 167.683 134.584 167.12 135.146Z" fill="black"/>
<path fill-rule="evenodd" clip-rule="evenodd" d="M103.963 25.0523C104.961 24.3179 105.651 23.2391 105.899 22.0251H131.999V64.1251C130.785 64.3729 129.706 65.0626 128.972 66.0606C128.237 67.0586 127.9 68.2937 128.024 69.5265C128.149 70.7593 128.727 71.902 129.646 72.7329C130.565 73.5639 131.76 74.024 132.999 74.024C134.238 74.024 135.433 73.5639 136.352 72.7329C137.271 71.902 137.849 70.7593 137.974 69.5265C138.098 68.2937 137.761 67.0586 137.026 66.0606C136.292 65.0626 135.213 64.3729 133.999 64.1251V20.0251H105.899C105.651 18.8111 104.961 17.7323 103.963 16.9979C102.965 16.2635 101.73 15.9259 100.497 16.0505C99.2646 16.175 98.122 16.7528 97.291 17.6719C96.4601 18.5911 96 19.786 96 21.0251C96 22.2642 96.4601 23.4591 97.291 24.3782C98.122 25.2974 99.2646 25.8752 100.497 25.9998C101.73 26.1243 102.965 25.7867 103.963 25.0523ZM132.999 72.025C133.795 72.025 134.558 71.7089 135.12 71.1463C135.683 70.5837 135.999 69.8206 135.999 69.025C135.999 68.2293 135.683 67.4663 135.12 66.9037C134.558 66.341 133.795 66.025 132.999 66.025C132.203 66.025 131.44 66.341 130.878 66.9037C130.315 67.4663 129.999 68.2293 129.999 69.025C129.999 69.8206 130.315 70.5837 130.878 71.1463C131.44 71.7089 132.203 72.025 132.999 72.025ZM103.12 23.1464C102.558 23.709 101.795 24.0251 100.999 24.0251C100.203 24.0251 99.4403 23.709 98.8777 23.1464C98.315 22.5838 97.999 21.8207 97.999 21.0251C97.999 20.2294 98.315 19.4664 98.8777 18.9038C99.4403 18.3411 100.203 18.0251 100.999 18.0251C101.795 18.0251 102.558 18.3411 103.12 18.9038C103.683 19.4664 103.999 20.2294 103.999 21.0251C103.999 21.8207 103.683 22.5838 103.12 23.1464Z" fill="black"/>
<path fill-rule="evenodd" clip-rule="evenodd" d="M101.999 70.025V41.9252C103.213 41.6774 104.292 40.9876 105.026 39.9896C105.761 38.9916 106.098 37.7565 105.974 36.5237C105.849 35.2909 105.271 34.1482 104.352 33.3172C103.433 32.4863 102.238 32.0262 100.999 32.0262C99.7599 32.0262 98.565 32.4863 97.6458 33.3172C96.7267 34.1482 96.1488 35.2909 96.0243 36.5237C95.8998 37.7565 96.2374 38.9916 96.9718 39.9896C97.7062 40.9876 98.7849 41.6774 99.999 41.9252V68.025H67.999V132.025H57.899C57.6512 130.811 56.9614 129.732 55.9634 128.998C54.9654 128.263 53.7303 127.926 52.4975 128.05C51.2646 128.175 50.122 128.753 49.291 129.672C48.4601 130.591 48 131.786 48 133.025C48 134.264 48.4601 135.459 49.291 136.378C50.122 137.297 51.2646 137.875 52.4975 138C53.7303 138.124 54.9654 137.787 55.9634 137.052C56.9614 136.318 57.6512 135.239 57.899 134.025H69.999V70.025H101.999ZM52.999 136.025C53.7946 136.025 54.5577 135.709 55.1203 135.146C55.6829 134.584 55.999 133.821 55.999 133.025C55.999 132.229 55.6829 131.466 55.1203 130.904C54.5577 130.341 53.7946 130.025 52.999 130.025C52.2033 130.025 51.4403 130.341 50.8777 130.904C50.3151 131.466 49.999 132.229 49.999 133.025C49.999 133.821 50.3151 134.584 50.8777 135.146C51.4403 135.709 52.2033 136.025 52.999 136.025ZM103.12 39.1465C102.558 39.7091 101.795 40.0252 100.999 40.0252C100.203 40.0252 99.4403 39.7091 98.8777 39.1465C98.315 38.5839 97.999 37.8208 97.999 37.0252C97.999 36.2295 98.315 35.4665 98.8777 34.9039C99.4403 34.3412 100.203 34.0252 100.999 34.0252C101.795 34.0252 102.558 34.3412 103.12 34.9039C103.683 35.4665 103.999 36.2295 103.999 37.0252C103.999 37.8208 103.683 38.5839 103.12 39.1465Z" fill="black"/>
<path fill-rule="evenodd" clip-rule="evenodd" d="M114.035 112.998C113.037 113.732 112.347 114.811 112.099 116.025H99.999V164.025H73.899C73.6512 162.811 72.9614 161.732 71.9634 160.998C70.9654 160.263 69.7303 159.926 68.4975 160.05C67.2646 160.175 66.122 160.753 65.291 161.672C64.4601 162.591 64 163.786 64 165.025C64 166.264 64.4601 167.459 65.291 168.378C66.122 169.297 67.2646 169.875 68.4975 170C69.7303 170.124 70.9654 169.787 71.9634 169.052C72.9614 168.318 73.6512 167.239 73.899 166.025H101.999V118.025H112.099C112.347 119.239 113.037 120.318 114.035 121.052C115.033 121.787 116.268 122.124 117.501 122C118.733 121.875 119.876 121.297 120.707 120.378C121.538 119.459 121.998 118.264 121.998 117.025C121.998 115.786 121.538 114.591 120.707 113.672C119.876 112.753 118.733 112.175 117.501 112.05C116.268 111.926 115.033 112.263 114.035 112.998ZM68.999 168.025C69.7946 168.025 70.5577 167.709 71.1203 167.146C71.6829 166.584 71.999 165.821 71.999 165.025C71.999 164.229 71.6829 163.466 71.1203 162.904C70.5577 162.341 69.7946 162.025 68.999 162.025C68.2033 162.025 67.4403 162.341 66.8777 162.904C66.315 163.466 65.999 164.229 65.999 165.025C65.999 165.821 66.315 166.584 66.8777 167.146C67.4403 167.709 68.2033 168.025 68.999 168.025ZM119.12 119.146C118.558 119.709 117.795 120.025 116.999 120.025C116.203 120.025 115.44 119.709 114.878 119.146C114.315 118.584 113.999 117.821 113.999 117.025C113.999 116.229 114.315 115.466 114.878 114.904C115.44 114.341 116.203 114.025 116.999 114.025C117.795 114.025 118.558 114.341 119.12 114.904C119.683 115.466 119.999 116.229 119.999 117.025C119.999 117.821 119.683 118.584 119.12 119.146Z" fill="black"/>
<path fill-rule="evenodd" clip-rule="evenodd" d="M117.999 212.025V137.925C119.213 137.677 120.292 136.987 121.026 135.989C121.761 134.991 122.098 133.756 121.974 132.523C121.849 131.291 121.271 130.148 120.352 129.317C119.433 128.486 118.238 128.026 116.999 128.026C115.76 128.026 114.565 128.486 113.646 129.317C112.727 130.148 112.149 131.291 112.024 132.523C111.9 133.756 112.237 134.991 112.972 135.989C113.706 136.987 114.785 137.677 115.999 137.925V214.025H131.999V224.125C130.785 224.373 129.706 225.063 128.972 226.061C128.237 227.059 127.9 228.294 128.024 229.527C128.149 230.759 128.727 231.902 129.646 232.733C130.565 233.564 131.76 234.024 132.999 234.024C134.238 234.024 135.433 233.564 136.352 232.733C137.271 231.902 137.849 230.759 137.974 229.527C138.098 228.294 137.761 227.059 137.026 226.061C136.292 225.063 135.213 224.373 133.999 224.125V212.025H117.999ZM132.999 232.025C133.795 232.025 134.558 231.709 135.12 231.146C135.683 230.584 135.999 229.821 135.999 229.025C135.999 228.229 135.683 227.466 135.12 226.904C134.558 226.341 133.795 226.025 132.999 226.025C132.203 226.025 131.44 226.341 130.878 226.904C130.315 227.466 129.999 228.229 129.999 229.025C129.999 229.821 130.315 230.584 130.878 231.146C131.44 231.709 132.203 232.025 132.999 232.025ZM119.12 135.146C118.558 135.709 117.795 136.025 116.999 136.025C116.203 136.025 115.44 135.709 114.878 135.146C114.315 134.584 113.999 133.821 113.999 133.025C113.999 132.229 114.315 131.466 114.878 130.904C115.44 130.341 116.203 130.025 116.999 130.025C117.795 130.025 118.558 130.341 119.12 130.904C119.683 131.466 119.999 132.229 119.999 133.025C119.999 133.821 119.683 134.584 119.12 135.146Z" fill="black"/>
<path d="M165.999 294.025H85.999V308.025H83.999V292.025H165.999V294.025Z" fill="black"/>
<path d="M69.999 278.025H165.999V276.025H69.999V278.025Z" fill="black"/>
<path fill-rule="evenodd" clip-rule="evenodd" d="M165.999 262.025H83.999V205.425L44.599 166.025H25.899C25.6512 167.239 24.9614 168.318 23.9634 169.052C22.9654 169.787 21.7303 170.124 20.4975 170C19.2646 169.875 18.122 169.297 17.291 168.378C16.4601 167.459 16 166.264 16 165.025C16 163.786 16.4601 162.591 17.291 161.672C18.122 160.753 19.2646 160.175 20.4975 160.05C21.7303 159.926 22.9654 160.263 23.9634 160.998C24.9614 161.732 25.6512 162.811 25.899 164.025H45.399L85.999 204.625V260.025H165.999V262.025ZM23.1203 167.146C22.5577 167.709 21.7946 168.025 20.999 168.025C20.2033 168.025 19.4403 167.709 18.8777 167.146C18.315 166.584 17.999 165.821 17.999 165.025C17.999 164.229 18.315 163.466 18.8777 162.904C19.4403 162.341 20.2033 162.025 20.999 162.025C21.7946 162.025 22.5577 162.341 23.1203 162.904C23.6829 163.466 23.999 164.229 23.999 165.025C23.999 165.821 23.6829 166.584 23.1203 167.146Z" fill="black"/>
<path fill-rule="evenodd" clip-rule="evenodd" d="M103.963 249.052C104.961 248.318 105.651 247.239 105.899 246.025H165.999V169.925C167.213 169.677 168.292 168.987 169.026 167.989C169.761 166.991 170.098 165.756 169.974 164.523C169.849 163.291 169.271 162.148 168.352 161.317C167.433 160.486 166.238 160.026 164.999 160.026C163.76 160.026 162.565 160.486 161.646 161.317C160.727 162.148 160.149 163.291 160.024 164.523C159.9 165.756 160.237 166.991 160.972 167.989C161.706 168.987 162.785 169.677 163.999 169.925V244.025H105.899C105.651 242.811 104.961 241.732 103.963 240.998C102.965 240.263 101.73 239.926 100.497 240.05C99.2646 240.175 98.122 240.753 97.291 241.672C96.4601 242.591 96 243.786 96 245.025C96 246.264 96.4601 247.459 97.291 248.378C98.122 249.297 99.2646 249.875 100.497 250C101.73 250.124 102.965 249.787 103.963 249.052ZM164.999 168.025C165.795 168.025 166.558 167.709 167.12 167.146C167.683 166.584 167.999 165.821 167.999 165.025C167.999 164.229 167.683 163.466 167.12 162.904C166.558 162.341 165.795 162.025 164.999 162.025C164.203 162.025 163.44 162.341 162.878 162.904C162.315 163.466 161.999 164.229 161.999 165.025C161.999 165.821 162.315 166.584 162.878 167.146C163.44 167.709 164.203 168.025 164.999 168.025ZM103.12 247.146C102.558 247.709 101.795 248.025 100.999 248.025C100.203 248.025 99.4403 247.709 98.8777 247.146C98.315 246.584 97.999 245.821 97.999 245.025C97.999 244.229 98.315 243.466 98.8777 242.904C99.4403 242.341 100.203 242.025 100.999 242.025C101.795 242.025 102.558 242.341 103.12 242.904C103.683 243.466 103.999 244.229 103.999 245.025C103.999 245.821 103.683 246.584 103.12 247.146Z" fill="black"/>
<path fill-rule="evenodd" clip-rule="evenodd" d="M39.9634 249.052C40.9614 248.318 41.6512 247.239 41.899 246.025H53.999V220.615L29.409 196.025H9.89899C9.65117 194.811 8.9614 193.732 7.96339 192.998C6.96539 192.263 5.73025 191.926 4.49745 192.05C3.26465 192.175 2.12201 192.753 1.29105 193.672C0.460083 194.591 0 195.786 0 197.025C0 198.264 0.460083 199.459 1.29105 200.378C2.12201 201.297 3.26465 201.875 4.49745 202C5.73025 202.124 6.96539 201.787 7.96339 201.052C8.9614 200.318 9.65117 199.239 9.89899 198.025H28.589L51.999 221.435V244.025H41.899C41.6512 242.811 40.9614 241.732 39.9634 240.998C38.9654 240.263 37.7303 239.926 36.4975 240.05C35.2646 240.175 34.122 240.753 33.291 241.672C32.4601 242.591 32 243.786 32 245.025C32 246.264 32.4601 247.459 33.291 248.378C34.122 249.297 35.2646 249.875 36.4975 250C37.7303 250.124 38.9654 249.787 39.9634 249.052ZM4.99898 200.025C5.79463 200.025 6.55769 199.709 7.1203 199.146C7.68291 198.584 7.99898 197.821 7.99898 197.025C7.99898 196.229 7.68291 195.466 7.1203 194.904C6.55769 194.341 5.79463 194.025 4.99898 194.025C4.20333 194.025 3.44026 194.341 2.87766 194.904C2.31505 195.466 1.99898 196.229 1.99898 197.025C1.99898 197.821 2.31505 198.584 2.87766 199.146C3.44026 199.709 4.20333 200.025 4.99898 200.025ZM39.1203 247.146C38.5577 247.709 37.7946 248.025 36.999 248.025C36.2033 248.025 35.4403 247.709 34.8777 247.146C34.3151 246.584 33.999 245.821 33.999 245.025C33.999 244.229 34.3151 243.466 34.8777 242.904C35.4403 242.341 36.2033 242.025 36.999 242.025C37.7946 242.025 38.5577 242.341 39.1203 242.904C39.6829 243.466 39.999 244.229 39.999 245.025C39.999 245.821 39.6829 246.584 39.1203 247.146Z" fill="black"/>
<path fill-rule="evenodd" clip-rule="evenodd" d="M39.9634 265.052C40.9614 264.318 41.6512 263.239 41.899 262.025H69.999V212.615L37.409 180.025H9.89899C9.65117 178.811 8.9614 177.732 7.96339 176.998C6.96539 176.263 5.73025 175.926 4.49745 176.05C3.26465 176.175 2.12201 176.753 1.29105 177.672C0.460083 178.591 0 179.786 0 181.025C0 182.264 0.460083 183.459 1.29105 184.378C2.12201 185.297 3.26465 185.875 4.49745 186C5.73025 186.124 6.96539 185.787 7.96339 185.052C8.9614 184.318 9.65117 183.239 9.89899 182.025H36.589L67.999 213.435V260.025H41.899C41.6512 258.811 40.9614 257.732 39.9634 256.998C38.9654 256.263 37.7303 255.926 36.4975 256.05C35.2646 256.175 34.122 256.753 33.291 257.672C32.4601 258.591 32 259.786 32 261.025C32 262.264 32.4601 263.459 33.291 264.378C34.122 265.297 35.2646 265.875 36.4975 266C37.7303 266.124 38.9654 265.787 39.9634 265.052ZM4.99898 184.025C5.79463 184.025 6.55769 183.709 7.1203 183.146C7.68291 182.584 7.99898 181.821 7.99898 181.025C7.99898 180.229 7.68291 179.466 7.1203 178.904C6.55769 178.341 5.79463 178.025 4.99898 178.025C4.20333 178.025 3.44026 178.341 2.87766 178.904C2.31505 179.466 1.99898 180.229 1.99898 181.025C1.99898 181.821 2.31505 182.584 2.87766 183.146C3.44026 183.709 4.20333 184.025 4.99898 184.025ZM39.1203 263.146C38.5577 263.709 37.7946 264.025 36.999 264.025C36.2033 264.025 35.4403 263.709 34.8777 263.146C34.3151 262.584 33.999 261.821 33.999 261.025C33.999 260.229 34.3151 259.466 34.8777 258.904C35.4403 258.341 36.2033 258.025 36.999 258.025C37.7946 258.025 38.5577 258.341 39.1203 258.904C39.6829 259.466 39.999 260.229 39.999 261.025C39.999 261.821 39.6829 262.584 39.1203 263.146Z" fill="black"/>
<path fill-rule="evenodd" clip-rule="evenodd" d="M165.999 4.02514V38.0252H147.999V25.9251C146.785 25.6773 145.706 24.9875 144.972 23.9895C144.237 22.9915 143.9 21.7564 144.024 20.5236C144.149 19.2908 144.727 18.1481 145.646 17.3172C146.565 16.4862 147.76 16.0262 148.999 16.0262C150.238 16.0262 151.433 16.4862 152.352 17.3172C153.271 18.1481 153.849 19.2908 153.974 20.5236C154.098 21.7564 153.761 22.9915 153.026 23.9895C152.292 24.9875 151.213 25.6773 149.999 25.9251V36.0252H163.999V6.02514L131.999 6H105.899C105.651 7.21405 104.961 8.29285 103.963 9.02722C102.965 9.7616 101.73 10.0992 100.497 9.97467C99.2646 9.85013 98.122 9.27229 97.291 8.35315C96.4601 7.43402 96 6.23908 96 5C96 3.76093 96.4601 2.56599 97.291 1.64685C98.122 0.727716 99.2646 0.149871 100.497 0.0253323C101.73 -0.0992061 102.965 0.238407 103.963 0.972781C104.961 1.70716 105.651 2.78596 105.899 4H133.999L153.026 4.02514H165.999ZM151.12 23.1464C150.558 23.709 149.795 24.0251 148.999 24.0251C148.203 24.0251 147.44 23.709 146.878 23.1464C146.315 22.5838 145.999 21.8207 145.999 21.0251C145.999 20.2294 146.315 19.4664 146.878 18.9038C147.44 18.3411 148.203 18.0251 148.999 18.0251C149.795 18.0251 150.558 18.3411 151.12 18.9038C151.683 19.4664 151.999 20.2294 151.999 21.0251C151.999 21.8207 151.683 22.5838 151.12 23.1464ZM103.12 7.12134C102.558 7.68395 101.795 8 100.999 8C100.203 8 99.4403 7.68395 98.8777 7.12134C98.315 6.55873 97.999 5.79565 97.999 5C97.999 4.20435 98.315 3.44127 98.8777 2.87866C99.4403 2.31606 100.203 2 100.999 2C101.795 2 102.558 2.31606 103.12 2.87866C103.683 3.44127 103.999 4.20435 103.999 5C103.999 5.79565 103.683 6.55873 103.12 7.12134Z" fill="black"/>
</svg>
